HIERARCHY
ROOT Hips
{
	OFFSET 0.00000 0.00000 0.00000
	CHANNELS 6 Xposition Yposition Zposition Zrotation Yrotation Xrotation 
	JOINT LHipJoint
	{
		OFFSET 0 0 0
		CHANNELS 3 Zrotation Yrotation Xrotation
		JOINT LeftUpLeg
		{
			OFFSET 1.41496 -1.84582 0.78394
			CHANNELS 3 Zrotation Yrotation Xrotation
			JOINT LeftLeg
			{
				OFFSET 2.58040 -7.08960 0.00000
				CHANNELS 3 Zrotation Yrotation Xrotation
				JOINT LeftFoot
				{
					OFFSET 2.64719 -7.27309 0.00000
					CHANNELS 3 Zrotation Yrotation Xrotation
					JOINT LeftToeBase
					{
						OFFSET 0.20718 -0.56921 2.20259
						CHANNELS 3 Zrotation Yrotation Xrotation
						End Site
						{
							OFFSET 0.00000 -0.00000 1.14243
						}
					}
				}
			}
		}
	}
	JOINT RHipJoint
	{
		OFFSET 0 0 0
		CHANNELS 3 Zrotation Yrotation Xrotation
		JOINT RightUpLeg
		{
			OFFSET -1.40551 -1.84582 0.78394
			CHANNELS 3 Zrotation Yrotation Xrotation
			JOINT RightLeg
			{
				OFFSET -2.56572 -7.04926 0.00000
				CHANNELS 3 Zrotation Yrotation Xrotation
				JOINT RightFoot
				{
					OFFSET -2.57974 -7.08778 0.00000
					CHANNELS 3 Zrotation Yrotation Xrotation
					JOINT RightToeBase
					{
						OFFSET -0.26704 -0.73369 2.20815
						CHANNELS 3 Zrotation Yrotation Xrotation
						End Site
						{
							OFFSET -0.00000 -0.00000 1.16246
						}
					}
				}
			}
		}
	}
	JOINT LowerBack
	{
		OFFSET 0 0 0
		CHANNELS 3 Zrotation Yrotation Xrotation
		JOINT Spine
		{
			OFFSET -0.04690 2.05196 -0.07017
			CHANNELS 3 Zrotation Yrotation Xrotation
			JOINT Spine1
			{
				OFFSET 0.04085 2.05260 0.00800
				CHANNELS 3 Zrotation Yrotation Xrotation
				JOINT Neck
				{
					OFFSET 0 0 0
					CHANNELS 3 Zrotation Yrotation Xrotation
					JOINT Neck1
					{
						OFFSET -0.03582 1.80995 0.19301
						CHANNELS 3 Zrotation Yrotation Xrotation
						JOINT Head
						{
							OFFSET 0.00952 1.80195 -0.36389
							CHANNELS 3 Zrotation Yrotation Xrotation
							End Site
							{
								OFFSET 0.00392 1.85062 -0.14494
							}
						}
					}
				}
				JOINT LeftShoulder
				{
					OFFSET 0 0 0
					CHANNELS 3 Zrotation Yrotation Xrotation
					JOINT LeftArm
					{
						OFFSET 3.55224 1.39726 -0.13667
						CHANNELS 3 Zrotation Yrotation Xrotation
						JOINT LeftForeArm
						{
							OFFSET 5.14507 -0.00000 -0.00000
							CHANNELS 3 Zrotation Yrotation Xrotation
							JOINT LeftHand
							{
								OFFSET 3.50646 -0.00000 0.00000
								CHANNELS 3 Zrotation Yrotation Xrotation
								JOINT LeftFingerBase
								{
									OFFSET 0 0 0
									CHANNELS 3 Zrotation Yrotation Xrotation
									JOINT LeftHandIndex1
									{
										OFFSET 0.62997 -0.00000 0.00000
										CHANNELS 3 Zrotation Yrotation Xrotation
										End Site
										{
											OFFSET 0.50790 -0.00000 0.00000
										}
									}
								}
								JOINT LThumb
								{
									OFFSET 0 0 0
									CHANNELS 3 Zrotation Yrotation Xrotation
									End Site
									{
										OFFSET 0.51565 -0.00000 0.51565
									}
								}
							}
						}
					}
				}
				JOINT RightShoulder
				{
					OFFSET 0 0 0
					CHANNELS 3 Zrotation Yrotation Xrotation
					JOINT RightArm
					{
						OFFSET -3.06467 1.61290 -0.28813
						CHANNELS 3 Zrotation Yrotation Xrotation
						JOINT RightForeArm
						{
							OFFSET -5.23200 -0.00000 -0.00000
							CHANNELS 3 Zrotation Yrotation Xrotation
							JOINT RightHand
							{
								OFFSET -3.65641 -0.00000 0.00000
								CHANNELS 3 Zrotation Yrotation Xrotation
								JOINT RightFingerBase
								{
									OFFSET 0 0 0
									CHANNELS 3 Zrotation Yrotation Xrotation
									JOINT RightHandIndex1
									{
										OFFSET -0.65681 -0.00000 0.00000
										CHANNELS 3 Zrotation Yrotation Xrotation
										End Site
										{
											OFFSET -0.52953 -0.00000 0.00000
										}
									}
								}
								JOINT RThumb
								{
									OFFSET 0 0 0
									CHANNELS 3 Zrotation Yrotation Xrotation
									End Site
									{
										OFFSET -0.53762 -0.00000 0.53762
									}
								}
							}
						}
					}
				}
			}
		}
	}
}
MOTION
Frames: 5
Frame Time: .0083333
-0.7238 20.6560 -7.1209 -0.6416 2.6729 4.7250 0.0000 0.0000 0.0000 -20.8405 -7.6999 -22.7029 16.0499 19.6217 78.3804 -0.0088 -3.3867 4.3687 0.1124 -2.1614 -5.9518 0.0000 0.0000 0.0000 16.4268 8.8218 -48.2633 -9.1336 -16.8929 56.5511 -0.2993 0.9728 -10.0367 -1.4625 7.6430 -21.6349 -0.7879 -2.3077 17.4500 3.1955 -2.9240 1.9922 4.5713 -1.3438 -7.4201 0.0957 0.8114 -19.0315 -2.9608 1.6138 13.9386 -0.8020 0.4844 7.4334 -0.0000 -0.0000 0.0000 -82.1154 17.1848 58.0980 122.9785 -55.4626 -88.1251 -0.0000 0.0000 -11.0343 23.5105 -17.3165 -7.3780 -7.1250 0.0000 -0.0000 -2.9087 11.2202 2.2902 -0.0000 -0.0000 0.0000 86.7054 -29.2095 24.3286 -96.7602 59.8266 -65.8511 0.0000 -0.0000 -3.7930 -27.6431 5.8272 -3.0439 7.1250 -0.0000 -0.0000 -0.6869 -23.4080 -0.3575
-0.7722 20.7068 -6.6871 -1.8647 2.8928 4.0282 0.0000 0.0000 0.0000 -18.6726 -7.5294 -25.2416 17.5495 19.8554 82.8186 -0.0374 -3.7240 2.9023 0.0958 -1.9959 -5.4943 0.0000 0.0000 0.0000 18.5898 8.3623 -45.6077 -9.0692 -16.8521 56.3293 -0.3716 0.5457 -11.3357 -1.3143 7.2614 -20.4921 0.0838 -2.0746 17.9920 3.5997 -2.4065 2.0931 4.4199 -1.1081 -7.6683 -0.1587 0.5197 -18.8929 -2.8696 1.2674 13.8933 -0.7713 0.3159 7.3872 0.0000 -0.0000 0.0000 -82.2239 17.9693 57.2219 120.2755 -56.2361 -85.8881 -0.0000 0.0000 -10.5053 23.8347 -17.1856 -7.4368 -7.1250 0.0000 -0.0000 -2.6844 11.3146 2.1079 0.0000 -0.0000 0.0000 87.0470 -27.8128 24.1155 -95.9350 59.8665 -65.1376 0.0000 -0.0000 -3.9373 -27.6477 5.4449 -2.8457 7.1250 -0.0000 -0.0000 -0.7073 -23.8381 -0.3611
-0.8229 20.7439 -6.2549 -3.0964 3.0375 3.4070 0.0000 0.0000 0.0000 -16.4064 -7.3294 -27.9764 18.9851 19.9753 87.0316 -0.0543 -4.1305 1.3752 0.0860 -1.8916 -5.2062 0.0000 0.0000 0.0000 20.7080 7.9571 -43.0884 -9.0497 -16.8396 56.2617 -0.4695 -0.0245 -12.9551 -1.2664 7.1332 -20.1105 0.9147 -1.8170 18.4980 4.0053 -1.8531 2.1496 4.2779 -0.8553 -7.9374 -0.3876 0.2305 -18.7518 -2.7757 0.9164 13.8459 -0.7439 0.1466 7.3411 0.0000 0.0000 0.0000 -82.2810 18.8048 56.3418 117.8179 -56.8639 -83.8373 -0.0000 0.0000 -10.4435 24.0499 -17.0435 -7.4521 -7.1250 0.0000 -0.0000 -2.5308 11.4367 1.9807 0.0000 0.0000 0.0000 87.2664 -26.4607 24.0903 -95.3603 59.8912 -64.6404 0.0000 -0.0000 -4.0830 -27.7357 5.0719 -2.6615 7.1250 -0.0000 -0.0000 -0.7885 -24.2536 -0.3951
-0.8749 20.7689 -5.8240 -4.2937 3.1370 2.8987 0.0000 0.0000 0.0000 -14.1112 -7.1482 -30.8962 20.3072 19.9977 90.8984 -0.0589 -4.6103 -0.0842 0.0783 -1.8049 -4.9668 0.0000 0.0000 0.0000 22.7366 7.5856 -40.7221 -9.0371 -16.8315 56.2182 -0.5809 -0.7558 -14.6909 -1.3114 7.2537 -20.4692 1.6867 -1.5457 18.9234 4.3987 -1.2860 2.1625 4.1446 -0.5965 -8.2015 -0.5951 -0.0518 -18.6223 -2.6767 0.5675 13.7847 -0.7175 -0.0201 7.2936 -0.0000 -0.0000 0.0000 -82.2761 19.6995 55.4710 115.7308 -57.3442 -82.0849 -0.0000 0.0000 -10.8512 24.1175 -16.9171 -7.4222 -7.1250 0.0000 -0.0000 -2.4759 11.5630 1.9312 -0.0000 -0.0000 0.0000 87.3581 -25.1374 24.2625 -95.0623 59.9029 -64.3827 0.0000 -0.0000 -4.2467 -27.9143 4.7048 -2.4882 7.1250 -0.0000 -0.0000 -0.9371 -24.6588 -0.4607
-0.9269 20.7833 -5.3942 -5.4275 3.2157 2.5357 0.0000 0.0000 0.0000 -11.8457 -7.0317 -34.0147 21.4930 19.9465 94.3690 -0.0541 -5.1705 -1.4411 0.0752 -1.7696 -4.8693 0.0000 0.0000 0.0000 24.6491 7.2249 -38.5571 -9.0267 -16.8249 56.1825 -0.6979 -1.5625 -16.4212 -1.4191 7.5336 -21.3061 2.3971 -1.2694 19.2308 4.7675 -0.7227 2.1319 4.0120 -0.3404 -8.4410 -0.7783 -0.3246 -18.5146 -2.5794 0.2246 13.6973 -0.6945 -0.1828 7.2424 -0.0000 -0.0000 0.0000 -82.1886 20.6702 54.6255 114.1012 -57.6872 -80.7102 -0.0000 0.0000 -11.5884 24.0615 -16.8658 -7.3815 -7.1250 0.0000 -0.0000 -2.5088 11.6260 1.9537 -0.0000 -0.0000 0.0000 87.3238 -23.8288 24.6288 -95.0496 59.9034 -64.3716 0.0000 -0.0000 -4.4116 -28.1661 4.3587 -2.3302 7.1250 -0.0000 -0.0000 -1.1399 -25.0383 -0.5505
